{"title":"Supernatural.S06E21.720p.HDTV.x264.Dual.Audio-By_Beto&amp;trade;","uid":7396619,"size":1238375462,"categoryP":"video","categoryS":"hd___tv_shows","magnet":"?xt=urn:btih:63bbae9b74acd980ca439ee8227f114b9b3612c0&amp;dn=Supernatural.S06E21.720p.HDTV.x264.Dual.Audio-By_Beto%26trade%3B&amp;tr=udp%3A%2F%2Ftracker.openbittorrent.com%3A80&amp;tr=udp%3A%2F%2Fopen.demonii.com%3A1337&amp;tr=udp%3A%2F%2Ftracker.coppersurfer.tk%3A6969&amp;tr=udp%3A%2F%2Fexodus.desync.com%3A6969","seeders":0,"leechers":1,"uploader":"rob2012","files":2,"time":1340934342,"description":"Supernatural.S06E21.720p.HDTV.x264.Dual.Audio-By_Betoâ„¢\n\n\n\nVideo\nID                                       : 1\nFormat                                   : AVC\nFormat/Info                              : Advanced Video Codec\nFormat profile                           : &lt;a class=&quot;__cf_email__&quot; href=&quot;/cdn-cgi/l/email-protection&quot; data-cfemail=&quot;94dcfdf3fcd4d8a7baa5&quot;&gt;[email&amp;#160;protected]&lt;/a&gt;&lt;script cf-hash='f9e31' type=&quot;text/javascript&quot;&gt;\n/* &lt;![CDATA[ */!function(){try{var t=&quot;currentScript&quot;in document?document.currentScript:function(){for(var t=document.getElementsByTagName(&quot;script&quot;),e=t.length;e--;)if(t[e].getAttribute(&quot;cf-hash&quot;))return t[e]}();if(t&amp;&amp;t.previousSibling){var e,r,n,i,c=t.previousSibling,a=c.getAttribute(&quot;data-cfemail&quot;);if(a){for(e=&quot;&quot;,r=parseInt(a.substr(0,2),16),n=2;a.length-n;n+=2)i=parseInt(a.substr(n,2),16)^r,e+=String.fromCharCode(i);e=document.createTextNode(e),c.parentNode.replaceChild(e,c)}}}catch(u){}}();/* ]]&gt; */&lt;/script&gt;\nFormat settings, CABAC                   : Yes\nFormat settings, ReFrames                : 3 frames\nCodec ID                                 : V_MPEG4/ISO/AVC\nDuration                                 : 42mn 22s\nBit rate                                 : 3 178 Kbps\nNominal bit rate                         : 3 350 Kbps\nWidth                                    : 1 280 pixels\nHeight                                   : 720 pixels\nDisplay aspect ratio                     : 16:9\nFrame rate                               : 23.976 fps\nColor space                              : YUV\nChroma subsampling                       : 4:2:0\nBit depth                                : 8 bits\nScan type                                : Progressive\nBits/(Pixel*Frame)                       : 0.144\nStream size                              : 963 MiB (82%)\nTitle                                    : Supernatural.S06E21\nWriting library                          : x264 core 102 r1666 d058f37\nLanguage                                 : English\n\nAudio #1\nID                                       : 2\nFormat                                   : MPEG Audio\nFormat version                           : Version 1\nFormat profile                           : Layer 3\nCodec ID                                 : A_MPEG/L3\nCodec ID/Hint                            : MP3\nDuration                                 : 42mn 22s\nBit rate mode                            : Constant\nBit rate                                 : 256 Kbps\nChannel(s)                               : 2 channels\nSampling rate                            : 44.1 KHz\nCompression mode                         : Lossy\nStream size                              : 77.6 MiB (7%)\n\nAudio #2\nID                                       : 3\nFormat                                   : AC-3\nFormat/Info                              : Audio Coding 3\nMode extension                           : CM (complete main)\nCodec ID                                 : A_AC3\nDuration                                 : 42mn 22s\nBit rate mode                            : Constant\nBit rate                                 : 384 Kbps\nChannel(s)                               : 6 channels\nChannel positions                        : Front: L C R, Side: L R, LFE\nSampling rate                            : 48.0 KHz\nBit depth                                : 16 bits\nCompression mode                         : Lossy\nStream size                              : 116 MiB (10%)\nTitle                                    : English-By_Betoâ„¢\nLanguage                                 : English","torrent":{"xt":"urn:btih:63bbae9b74acd980ca439ee8227f114b9b3612c0","amp;dn":"Supernatural.S06E21.720p.HDTV.x264.Dual.Audio-By_Beto%26trade%3B","amp;tr":["udp%3A%2F%2Ftracker.openbittorrent.com%3A80","udp%3A%2F%2Fopen.demonii.com%3A1337","udp%3A%2F%2Ftracker.coppersurfer.tk%3A6969","udp%3A%2F%2Fexodus.desync.com%3A6969"],"infoHash":"63bbae9b74acd980ca439ee8227f114b9b3612c0","infoHashBuffer":{"type":"Buffer","data":[99,187,174,155,116,172,217,128,202,67,158,232,34,127,17,75,155,54,18,192]},"announce":[],"urlList":[]}}